<?xml version="1.0" encoding="UTF-8" standalone="no"?>
<!DOCTYPE svg PUBLIC "-//W3C//DTD SVG 1.1//EN" "http://www.w3.org/Graphics/SVG/1.1/DTD/svg11.dtd">
<svg width="100%" height="100%" viewBox="0 0 538 540" version="1.1" xmlns="http://www.w3.org/2000/svg" xmlns:xlink="http://www.w3.org/1999/xlink" xml:space="preserve" xmlns:serif="http://www.serif.com/" style="fill-rule:evenodd;clip-rule:evenodd;stroke-linejoin:round;stroke-miterlimit:2;">
    <g transform="matrix(0.1,0,0,-0.1,-101,642)">
        <path d="M4154,6290C4158,6249 4165,6172 4170,6120C4175,6068 4177,6002 4173,5973L4167,5921L4101,5927C4065,5930 4038,5930 4041,5927C4044,5923 4065,5919 4087,5917C4149,5912 4207,5858 4264,5753C4308,5671 4314,5665 4343,5665C4361,5665 4386,5661 4400,5657C4414,5653 4408,5658 4387,5668C4366,5677 4352,5688 4355,5692C4359,5695 4352,5701 4341,5705C4315,5713 4290,5737 4290,5754C4290,5761 4316,5777 4349,5789C4381,5800 4429,5829 4456,5853C4482,5876 4501,5887 4497,5878C4487,5849 4495,5857 4525,5901L4552,5943L4524,5923C4508,5911 4486,5893 4476,5881C4466,5870 4435,5846 4409,5829C4349,5791 4321,5795 4281,5850C4243,5903 4226,5964 4190,6174C4158,6365 4143,6413 4154,6290Z" style="fill-rule:nonzero;"/>
        <path d="M3006,6193C3071,6075 3166,5896 3173,5877C3180,5857 3182,5858 3095,5839C3062,5832 3029,5822 3022,5817C3015,5812 3008,5809 3006,5811C2996,5820 2969,5960 2963,6029L2956,6105L2938,6000C2929,5942 2921,5874 2921,5849C2920,5818 2914,5798 2903,5788C2883,5772 2738,5727 2645,5709C2579,5697 2536,5678 2503,5648C2488,5634 2475,5630 2459,5635C2446,5639 2387,5692 2328,5751C2177,5903 2182,5883 2342,5692C2385,5641 2420,5596 2420,5591C2420,5580 2385,5570 2345,5570C2311,5570 2236,5549 2194,5527C2141,5501 2102,5515 2004,5596C1894,5687 1733,5796 1722,5786C1719,5783 1737,5763 1761,5742C1785,5721 1838,5675 1879,5639C1988,5544 2013,5510 2021,5442C2026,5396 2023,5375 2005,5330C1993,5300 1977,5258 1970,5238C1964,5217 1956,5200 1954,5200C1942,5200 1892,5230 1880,5245C1873,5254 1853,5268 1836,5277C1807,5291 1808,5289 1850,5244C1875,5217 1906,5183 1920,5167L1944,5140L1834,5031C1774,4972 1715,4918 1703,4911C1673,4896 1488,4913 1392,4941C1316,4963 1310,4963 1310,4951C1310,4946 1340,4934 1378,4925C1485,4897 1503,4891 1533,4866L1562,4843L1526,4796C1480,4735 1466,4685 1481,4627C1491,4586 1489,4578 1462,4524C1446,4491 1418,4422 1400,4370C1382,4318 1366,4272 1364,4268C1361,4264 1336,4274 1308,4291C1211,4348 1049,4425 1075,4402C1081,4397 1123,4366 1170,4332C1290,4246 1340,4197 1340,4168C1340,4153 1325,4129 1301,4106C1249,4056 1213,3971 1198,3871C1183,3764 1201,3692 1274,3562L1329,3465L1328,3348C1328,3207 1332,3214 1163,3052C1038,2932 1039,2923 1168,2995C1210,3018 1256,3041 1269,3045C1292,3052 1293,3051 1287,3007C1281,2964 1299,2882 1321,2854C1326,2848 1368,2817 1414,2786C1460,2755 1523,2706 1554,2677L1610,2625L1600,2555C1561,2266 1628,2120 1855,2002C1959,1948 1965,1943 1964,1915C1963,1898 1934,1827 1899,1755C1864,1684 1834,1621 1832,1615C1821,1585 1887,1679 1941,1770C2019,1901 2026,1910 2063,1910C2130,1910 2172,1888 2219,1827C2300,1723 2300,1723 2263,1692C2216,1651 2016,1478 2005,1467C1981,1444 2055,1489 2189,1578L2333,1674L2351,1652C2360,1640 2373,1607 2379,1579C2391,1522 2393,1240 2381,1137C2377,1100 2377,1065 2381,1059C2391,1042 2408,1105 2420,1210C2426,1262 2438,1338 2446,1378C2461,1446 2464,1451 2499,1468C2537,1487 2537,1487 2607,1458C2646,1443 2758,1408 2855,1381C3019,1336 3036,1329 3064,1297C3101,1255 3171,1215 3223,1206C3243,1202 3260,1194 3260,1187C3260,1181 3234,1149 3203,1117L3145,1058L3194,1094C3221,1114 3257,1138 3274,1147C3332,1176 3420,1233 3415,1238C3413,1241 3398,1238 3383,1232C3335,1214 3301,1209 3295,1220C3292,1225 3277,1230 3262,1230C3247,1230 3222,1239 3205,1250C3185,1263 3174,1266 3169,1258C3157,1239 3099,1284 3017,1378C2974,1426 2930,1481 2919,1499C2908,1517 2896,1529 2893,1526C2885,1518 2840,1560 2840,1574C2841,1580 2852,1572 2865,1555C2879,1539 2890,1530 2890,1535C2890,1541 2873,1563 2852,1585C2832,1608 2821,1619 2828,1610C2845,1587 2843,1575 2824,1591C2796,1614 2718,1730 2722,1742C2725,1749 2735,1740 2745,1723C2755,1705 2768,1693 2772,1696C2777,1699 2788,1696 2797,1688C2811,1677 2813,1677 2806,1690C2797,1708 2844,1658 2882,1610C2897,1591 2907,1583 2904,1593C2894,1623 2905,1612 2968,1531C3002,1488 3072,1412 3123,1363C3230,1260 3266,1242 3335,1259C3388,1272 3393,1272 3386,1261C3383,1256 3393,1250 3409,1247C3429,1243 3464,1251 3524,1275C3571,1294 3616,1307 3624,1304C3632,1301 3647,1280 3657,1257C3701,1159 3700,1160 3693,1230C3690,1266 3686,1302 3686,1310C3685,1323 3703,1325 3800,1322C3963,1318 3976,1312 4115,1169C4179,1103 4234,1051 4237,1053C4239,1056 4216,1106 4185,1164C4144,1240 4132,1271 4142,1274C4149,1277 4171,1284 4191,1290C4225,1300 4320,1385 4342,1424C4350,1437 4377,1440 4513,1442L4675,1444L4533,1449C4323,1458 4328,1473 4545,1487L4665,1494L4557,1505C4441,1516 4425,1529 4524,1532L4585,1533L4535,1540C4486,1547 4486,1547 4525,1548C4547,1549 4625,1545 4697,1538C4822,1527 4831,1525 4857,1498C4871,1483 4881,1468 4878,1465C4876,1462 4848,1465 4817,1471C4785,1476 4755,1478 4750,1475C4733,1465 4749,1450 4778,1449C4793,1449 4823,1442 4845,1435C4875,1425 4879,1421 4860,1422C4813,1423 4815,1419 4870,1404C4960,1380 5024,1345 5072,1295C5122,1243 5130,1246 5132,1313C5132,1358 5113,1407 5086,1429C5077,1437 5081,1423 5096,1396C5111,1370 5120,1339 5118,1323L5115,1296L5060,1343C5030,1369 4978,1411 4945,1436C4882,1486 4860,1508 4860,1523C4860,1531 4872,1530 4935,1514C4954,1509 4954,1510 4936,1521C4926,1527 4883,1537 4841,1542C4799,1547 4718,1557 4660,1565L4555,1578L4665,1579C4726,1580 4804,1587 4840,1595C4876,1603 4887,1607 4865,1604C4720,1587 4660,1588 4465,1615C4355,1629 4264,1643 4262,1645C4248,1658 4280,1670 4330,1670C4362,1670 4391,1673 4394,1678C4396,1682 4440,1682 4492,1678C4846,1650 4858,1650 4948,1679C5040,1710 5057,1702 4978,1665C4949,1651 4930,1640 4935,1640C4941,1640 4936,1633 4926,1625C4891,1599 4932,1608 4998,1641C5076,1680 5102,1712 5170,1854C5231,1983 5225,1979 5325,1955L5385,1941L5345,1978C5323,1999 5294,2024 5280,2033L5255,2051L5317,2111C5378,2170 5379,2171 5407,2156C5459,2129 5584,2030 5652,1963C5689,1926 5722,1899 5725,1901C5731,1907 5495,2167 5454,2199C5404,2238 5431,2245 5640,2245C5744,2246 5831,2248 5834,2250C5836,2253 5792,2270 5735,2289C5678,2308 5633,2327 5636,2332C5639,2336 5600,2320 5549,2295C5498,2270 5446,2250 5434,2250C5395,2250 5396,2229 5436,2197C5503,2143 5580,2068 5580,2057C5580,2051 5570,2056 5558,2067C5525,2097 5383,2190 5371,2190C5352,2190 5143,2093 5037,2034C4887,1952 4754,1861 4672,1785C4633,1748 4600,1721 4600,1725C4600,1744 4627,1773 4699,1830C4744,1865 4780,1898 4780,1903C4780,1914 4727,1875 4643,1802C4608,1772 4580,1752 4580,1758C4580,1763 4617,1799 4661,1836C4706,1874 4757,1917 4774,1932L4805,1960L4771,1943C4752,1934 4683,1880 4616,1823C4520,1741 4494,1723 4487,1735C4483,1743 4481,1754 4484,1759C4496,1778 4660,1911 4749,1974C4853,2047 4856,2051 4920,2192C4945,2246 4967,2290 4971,2290C4974,2290 4967,2255 4954,2213C4942,2170 4934,2133 4936,2131C4938,2129 5039,2175 5160,2234C5282,2292 5392,2342 5404,2344C5434,2349 5550,2408 5550,2418C5550,2422 5566,2436 5585,2449C5612,2467 5624,2470 5632,2462C5641,2453 5634,2447 5608,2435C5588,2427 5570,2416 5568,2412C5567,2407 5513,2375 5450,2341C5387,2308 5340,2280 5345,2280C5351,2281 5425,2316 5509,2360C5594,2404 5666,2438 5668,2435C5677,2427 5658,2411 5590,2371C5552,2348 5520,2327 5520,2324C5520,2322 5552,2336 5591,2356C5644,2382 5661,2387 5657,2375C5653,2366 5654,2362 5659,2365C5664,2368 5674,2387 5680,2406C5690,2436 5689,2452 5675,2501L5657,2559L5683,2624C5698,2660 5713,2708 5716,2730C5720,2756 5737,2788 5761,2818C5783,2844 5800,2868 5800,2872C5800,2890 5945,2945 6090,2984L6145,2998L6104,2999C6082,3000 6060,2996 6054,2991C6049,2987 6000,2968 5945,2951C5790,2901 5781,2895 5734,2813C5711,2773 5683,2708 5670,2668C5649,2598 5630,2561 5630,2588C5630,2643 5732,2951 5758,2972C5772,2983 5773,2982 5767,2965C5763,2953 5768,2956 5782,2975C5794,2992 5816,3016 5830,3030C5844,3044 5869,3072 5884,3093C5900,3113 5917,3130 5922,3130C5932,3130 5893,3077 5827,3000C5806,2975 5784,2946 5778,2935C5773,2924 5781,2931 5797,2950C5812,2969 5840,3000 5857,3018C5875,3036 5915,3087 5946,3130C5977,3174 6005,3210 6010,3210C6023,3210 6060,3307 6065,3357C6069,3389 6067,3398 6062,3385C6054,3368 6048,3374 6021,3429C6003,3464 5960,3540 5924,3597C5855,3710 5855,3710 5869,3710C5875,3710 5901,3673 5928,3628C6015,3482 6052,3424 6046,3446C6039,3469 6054,3477 6245,3555C6387,3613 6366,3613 6195,3554C6109,3524 6033,3500 6027,3500C6013,3501 5868,3734 5862,3765C5860,3776 5868,3809 5879,3838C5909,3914 5904,3915 5868,3840C5821,3739 5781,3565 5770,3409C5763,3312 5753,3250 5735,3191C5720,3146 5695,3045 5679,2967C5663,2889 5640,2787 5629,2740C5602,2631 5531,2430 5519,2430C5507,2430 5506,2424 5540,2526C5576,2631 5633,2840 5628,2846C5626,2848 5603,2781 5578,2697C5525,2522 5490,2426 5483,2434C5480,2436 5491,2481 5508,2532C5542,2638 5561,2718 5589,2875C5612,3004 5634,3213 5627,3232C5622,3246 5621,3239 5596,3078C5580,2976 5512,2674 5485,2582C5458,2491 5458,2531 5485,2631C5499,2683 5510,2736 5510,2750C5510,2764 5519,2809 5530,2850C5542,2891 5562,3006 5576,3105C5599,3272 5600,3326 5583,3398C5578,3420 5577,3420 5558,3403C5540,3387 5519,3385 5399,3386C5323,3386 5262,3385 5264,3382C5266,3380 5301,3374 5342,3369C5418,3360 5514,3319 5533,3288C5541,3276 5525,3235 5461,3103C5415,3011 5376,2933 5374,2931C5372,2928 5354,2942 5335,2960C5294,2999 5292,2992 5321,2921L5343,2870L5315,2772C5281,2657 5274,2640 5256,2640C5249,2640 5201,2665 5150,2695C5099,2726 5056,2749 5054,2747C5051,2745 5062,2735 5077,2725C5153,2676 5259,2583 5259,2565C5260,2542 5215,2313 5205,2290C5201,2282 5152,2252 5094,2223L4990,2172L4991,2223C4991,2252 4995,2308 4999,2348C5003,2388 5004,2423 5001,2426C4999,2428 4974,2371 4948,2298C4898,2164 4849,2080 4821,2080C4812,2080 4766,2122 4718,2172C4622,2273 4605,2281 4674,2192C4726,2125 4746,2087 4755,2039C4764,1988 4744,1973 4689,1989C4666,1996 4645,1999 4642,1996C4639,1993 4641,1990 4646,1990C4654,1989 4512,1920 4503,1920C4501,1920 4502,1925 4505,1931C4509,1937 4489,1929 4460,1915C4391,1880 4380,1886 4379,1957C4379,1989 4375,2038 4370,2065C4363,2113 4363,2111 4361,2035C4359,1890 4331,1837 4225,1774C4163,1738 4142,1732 4055,1721C3893,1701 3847,1691 3754,1655C3687,1628 3663,1623 3653,1632C3636,1646 3557,1811 3540,1868C3533,1891 3525,1908 3523,1906C3521,1904 3532,1858 3549,1804C3601,1635 3593,1580 3520,1610C3502,1618 3453,1646 3411,1674C3369,1702 3286,1750 3225,1780L3115,1837L3118,1881C3122,1938 3174,2163 3195,2215C3204,2237 3208,2251 3203,2245C3190,2232 3120,2058 3115,2028C3112,2014 3093,1970 3072,1929C3045,1876 3028,1854 3013,1852C3001,1850 2941,1861 2879,1876L2768,1902L2711,1962C2680,1995 2642,2032 2625,2043C2609,2054 2625,2035 2663,2001C2753,1917 2749,1901 2658,1981C2554,2071 2550,2074 2575,2066C2623,2051 2555,2090 2487,2117C2394,2154 2385,2168 2393,2279C2397,2328 2402,2376 2405,2386C2413,2414 2398,2380 2364,2291C2348,2250 2328,2212 2319,2207C2307,2200 2287,2203 2244,2220C2212,2233 2180,2248 2173,2253C2153,2268 2099,2380 2106,2392C2110,2398 2129,2417 2149,2434C2169,2451 2214,2492 2250,2525C2286,2558 2343,2603 2378,2625C2412,2646 2440,2668 2440,2673C2440,2677 2421,2668 2398,2652C2306,2589 2084,2470 2059,2470C2026,2470 1984,2516 1975,2562C1959,2646 1943,2693 1893,2800C1863,2863 1821,2945 1799,2982L1758,3049L1770,3161C1782,3280 1792,3332 1834,3474C1867,3584 1867,3596 1835,3565C1822,3551 1807,3540 1802,3540C1797,3540 1773,3514 1748,3483C1680,3394 1680,3389 1749,3463C1784,3500 1815,3529 1817,3526C1823,3520 1773,3435 1755,3420C1747,3414 1743,3403 1746,3396C1749,3389 1739,3375 1725,3366C1700,3350 1699,3350 1690,3372C1684,3389 1681,3370 1680,3305C1679,3187 1671,3175 1635,3237C1620,3263 1591,3307 1572,3333C1538,3381 1538,3382 1551,3423C1563,3461 1566,3485 1561,3515C1560,3521 1547,3494 1531,3455C1516,3417 1491,3359 1477,3328C1462,3297 1450,3267 1450,3261C1450,3256 1438,3228 1423,3199C1409,3170 1382,3103 1364,3051C1323,2933 1304,2919 1314,3014C1321,3086 1359,3201 1416,3325C1484,3474 1531,3620 1546,3728C1561,3840 1582,4152 1574,4159C1572,4161 1570,4152 1570,4139C1570,4126 1550,4085 1526,4048C1502,4011 1467,3951 1449,3915C1430,3879 1411,3850 1407,3850C1398,3850 1406,3956 1421,4036C1430,4083 1436,4091 1496,4136C1556,4181 1590,4192 1598,4169C1600,4164 1606,4163 1612,4166C1619,4171 1621,4110 1618,3977C1614,3786 1615,3783 1630,3833C1647,3887 1667,3920 1736,4011C1758,4041 1794,4098 1816,4138C1854,4210 1856,4211 1888,4206C1906,4203 1969,4178 2027,4150C2085,4123 2135,4102 2137,4104C2140,4106 2131,4114 2118,4121C2106,4128 2054,4165 2004,4204C1953,4243 1904,4280 1895,4285C1878,4295 1878,4300 1894,4375C1925,4519 1933,4530 2022,4531C2051,4531 2095,4535 2120,4539L2165,4546L2090,4559C2005,4573 1970,4585 1970,4600C1970,4629 2172,4980 2189,4980C2192,4980 2192,4943 2188,4898C2179,4781 2179,4745 2188,4755C2193,4761 2216,4819 2240,4885C2286,5015 2331,5090 2363,5090C2388,5090 2444,5031 2475,4971C2508,4908 2506,4924 2470,5014C2424,5129 2422,5146 2456,5181C2476,5202 2493,5210 2517,5210C2536,5210 2571,5215 2596,5221C2633,5231 2644,5230 2654,5219C2670,5202 2710,5006 2710,4945C2710,4920 2715,4900 2720,4900C2731,4900 2728,5056 2715,5170C2712,5200 2713,5230 2717,5235C2731,5253 2783,5284 2855,5315C2894,5332 2943,5358 2965,5373C3044,5427 3046,5426 3300,5184C3411,5079 3412,5084 3304,5200C3254,5255 3116,5440 3122,5445C3124,5446 3181,5459 3250,5474C3319,5488 3418,5513 3470,5529C3522,5546 3566,5558 3568,5556C3573,5550 3387,5386 3348,5361C3327,5349 3310,5337 3310,5335C3310,5333 3383,5367 3473,5412C3711,5530 3747,5543 3845,5537C3922,5533 3932,5529 4088,5451C4270,5360 4261,5373 4191,5298C4172,5277 4161,5260 4167,5260C4174,5260 4182,5265 4186,5271C4195,5287 4311,5340 4335,5340C4383,5339 4435,5312 4452,5279C4486,5210 4493,5143 4487,4927C4484,4812 4484,4720 4486,4723C4490,4727 4505,4890 4525,5163C4532,5250 4532,5250 4560,5250C4575,5250 4605,5244 4626,5236C4648,5229 4721,5211 4790,5195C4859,5180 4920,5165 4926,5161C4947,5150 5061,4970 5055,4960C5052,4955 5032,4950 5012,4950L4975,4949L5015,4935C5041,4926 5058,4924 5066,4931C5074,4938 5080,4937 5083,4928C5086,4921 5089,4927 5089,4941C5091,4999 4859,5311 4798,5332C4770,5342 4798,5349 4830,5340C4887,5324 4947,5251 5024,5104C5044,5065 5074,5018 5091,4999L5121,4965L5097,5000C5083,5019 5053,5071 5030,5115C5007,5159 4981,5203 4973,5212C4965,5221 4960,5234 4962,5241C4966,5254 4999,5205 5074,5075C5099,5031 5131,4982 5146,4965L5172,4935L5146,4980C5131,5005 5103,5056 5084,5095C5035,5189 5068,5159 5132,5051C5213,4913 5232,4888 5439,4634C5463,4604 5481,4577 5478,4574C5475,4571 5451,4590 5425,4617C5389,4654 5383,4658 5396,4635C5416,4601 5478,4520 5495,4505C5516,4486 5608,4345 5614,4320C5620,4298 5616,4301 5586,4335C5537,4390 5541,4370 5590,4307C5612,4280 5628,4255 5625,4252C5622,4249 5612,4257 5603,4271C5593,4284 5563,4320 5535,4350C5506,4380 5459,4437 5428,4475C5317,4616 5158,4794 5117,4824C5094,4841 5081,4847 5089,4837C5100,4823 5100,4817 5087,4796C5061,4756 4917,4632 4829,4572C4784,4541 4751,4515 4756,4513C4765,4510 4914,4587 5074,4677C5201,4749 5194,4753 5253,4567C5280,4480 5299,4406 5295,4402C5292,4398 5247,4393 5197,4391L5105,4387L5182,4369C5322,4336 5346,4318 5425,4188C5505,4056 5680,3797 5686,3803C5691,3808 5786,4039 5822,4135C5854,4222 5856,4225 5863,4213C5873,4196 5837,4091 5771,3952C5734,3871 5700,3794 5697,3780C5693,3766 5700,3775 5711,3800C5795,3981 5845,4078 5851,4069C5854,4063 5862,4080 5869,4107C5876,4133 5885,4169 5890,4185L5898,4215L5900,4180L5903,4145L5915,4225L5933,4193C5956,4150 5955,4120 5926,4009C5912,3957 5903,3914 5905,3912C5912,3904 5951,4046 5957,4101C5962,4147 5959,4167 5941,4202C5906,4275 5879,4301 5825,4314C5778,4326 5773,4330 5748,4383C5713,4455 5660,4692 5660,4776C5660,4865 5683,4969 5736,5117C5760,5186 5780,5245 5780,5249C5780,5255 5729,5165 5679,5070C5663,5040 5650,5009 5650,5003C5650,4996 5646,4990 5641,4990C5637,4990 5618,4956 5600,4914C5565,4836 5559,4834 5545,4900C5537,4937 5482,5057 5469,5066C5464,5068 5467,5055 5475,5036C5496,4986 5494,4969 5471,5006C5461,5023 5419,5057 5378,5083C5336,5109 5297,5137 5290,5145C5266,5174 5314,5162 5390,5120C5430,5098 5456,5087 5450,5096C5443,5104 5391,5133 5336,5161C5220,5219 5207,5231 5221,5267C5233,5300 5385,5573 5420,5625C5484,5721 5465,5704 5363,5573C5329,5530 5267,5458 5226,5415L5151,5335L5107,5380C5075,5412 5017,5448 4909,5504C4824,5547 4749,5587 4742,5593C4735,5599 4722,5619 4714,5638C4699,5675 4700,5677 4766,5875C4769,5886 4757,5866 4738,5830C4700,5756 4649,5680 4626,5660C4612,5649 4597,5653 4526,5688C4480,5711 4439,5738 4436,5747C4431,5758 4440,5781 4461,5810C4478,5835 4483,5846 4473,5835C4462,5824 4437,5792 4417,5764L4380,5713L4458,5677C4500,5658 4618,5607 4719,5564C4904,5486 5004,5429 5093,5352C5120,5329 5146,5310 5152,5310C5159,5310 5192,5340 5227,5378C5281,5435 5288,5440 5274,5410C5265,5391 5252,5368 5245,5360C5222,5333 5198,5261 5204,5236C5207,5223 5237,5181 5270,5141C5345,5052 5411,4954 5483,4825C5513,4770 5553,4707 5570,4685C5623,4619 5645,4573 5708,4400C5776,4217 5785,4179 5771,4135C5761,4101 5760,4104 5735,4190C5727,4220 5715,4252 5710,4260C5697,4280 5697,4268 5711,4233C5726,4195 5739,4110 5730,4105C5727,4103 5714,4133 5702,4173C5675,4265 5554,4531 5507,4601C5487,4631 5446,4684 5415,4719C5385,4755 5342,4817 5320,4857C5245,4996 5061,5236 5016,5253C5005,5257 4973,5278 4945,5299C4918,5320 4883,5345 4868,5355C4853,5364 4843,5377 4847,5383C4850,5389 4848,5390 4842,5386C4836,5383 4811,5390 4786,5402C4761,5414 4745,5427 4751,5430C4763,5438 4643,5494 4505,5544C4372,5593 4351,5602 4370,5607C4398,5614 4653,5520 4759,5464C4894,5393 4996,5322 5090,5235C5150,5180 5155,5177 5115,5219C4995,5347 4802,5473 4597,5557C4477,5606 4320,5660 4320,5653C4320,5650 4343,5609 4372,5561C4435,5455 4439,5447 4403,5487C4388,5504 4346,5572 4310,5638C4239,5770 4217,5796 4276,5679C4296,5639 4318,5588 4326,5567C4333,5546 4349,5515 4361,5498C4379,5473 4380,5466 4369,5459C4349,5446 4347,5447 4304,5479C4268,5505 4209,5589 4195,5635C4189,5654 4189,5654 4203,5638C4211,5628 4221,5624 4225,5628C4230,5632 4230,5626 4226,5615C4222,5604 4222,5599 4226,5603C4230,5607 4242,5603 4252,5593C4282,5566 4272,5596 4235,5642C4216,5666 4182,5711 4158,5742C4134,5774 4111,5800 4107,5800C4103,5800 4051,5823 3993,5850C3933,5878 3873,5900 3854,5900C3836,5900 3820,5904 3818,5910C3813,5925 3668,5939 3648,5926C3625,5912 3616,5924 3630,5950C3641,5971 3647,5972 3716,5968C3759,5965 3791,5967 3793,5973C3795,5981 3850,5972 4008,5934C4023,5930 4032,5930 4029,5934C4020,5944 3723,6010 3686,6010C3633,6010 3607,5982 3600,5919L3595,5865L3510,5859C3463,5856 3385,5858 3336,5864L3247,5874L3191,5950C3160,5992 3101,6079 3060,6143C2980,6270 2945,6302 3006,6193ZM3750,5845C3797,5837 3850,5830 3868,5830C3885,5830 3900,5826 3900,5821C3900,5807 3774,5800 3696,5810C3613,5820 3518,5810 3470,5785C3410,5754 3429,5777 3492,5813C3586,5865 3615,5869 3750,5845ZM3408,5756C3469,5737 3554,5714 3598,5706C3642,5698 3713,5681 3757,5670C3844,5646 4018,5632 4043,5646C4056,5654 4044,5664 3985,5695C3944,5717 3910,5738 3910,5743C3910,5747 3937,5751 3970,5752C4003,5753 4040,5754 4052,5754C4066,5755 4083,5740 4107,5706C4126,5679 4137,5653 4133,5649C4126,5642 4060,5630 3935,5614C3890,5608 3887,5607 3910,5598C3936,5588 4124,5592 4150,5604C4159,5607 4174,5604 4185,5596C4224,5567 4189,5555 4055,5551C3954,5549 3907,5553 3798,5573C3725,5587 3643,5602 3615,5606C3588,5609 3484,5627 3385,5646C3161,5688 3132,5689 3055,5650C3022,5633 3004,5622 3015,5626C3110,5655 3135,5661 3158,5658C3182,5655 3177,5650 3109,5608C3036,5562 3029,5560 2960,5560C2901,5560 2890,5562 2899,5573C2905,5581 2928,5593 2950,5600C2975,5608 2990,5619 2990,5629C2990,5640 3014,5656 3056,5674C3120,5702 3125,5703 3243,5696C3310,5693 3411,5682 3468,5672C3524,5662 3575,5657 3582,5661C3595,5669 3593,5670 3445,5705C3288,5743 3169,5754 3123,5735C3104,5727 3081,5720 3073,5720C3065,5720 3025,5707 2983,5690C2942,5674 2906,5660 2903,5660C2888,5660 2935,5700 2963,5711C2981,5718 3002,5729 3010,5736C3037,5758 3163,5783 3272,5789C3286,5789 3348,5775 3408,5756ZM3990,5772C3990,5762 3776,5750 3617,5750C3562,5750 3520,5753 3524,5757C3541,5774 3990,5788 3990,5772ZM3913,5719C3983,5683 3985,5682 3978,5675C3971,5667 3840,5732 3840,5742C3840,5754 3846,5752 3913,5719ZM2860,5735C2860,5723 2759,5686 2651,5659C2530,5628 2510,5625 2510,5639C2510,5643 2554,5657 2608,5670C2661,5682 2734,5702 2770,5715C2838,5739 2860,5743 2860,5735ZM3230,5632C3230,5628 3224,5618 3218,5611C3207,5601 3209,5600 3225,5606C3236,5610 3255,5620 3268,5628C3280,5636 3290,5638 3290,5634C3289,5629 3254,5601 3211,5572C3168,5543 3107,5497 3075,5470C3026,5428 2874,5350 2842,5350C2837,5350 2807,5339 2776,5325C2744,5311 2722,5305 2725,5311C2729,5317 2752,5330 2776,5340C2800,5351 2820,5361 2820,5364C2820,5371 2751,5346 2710,5325C2693,5316 2674,5310 2667,5313C2661,5315 2699,5341 2751,5370C2803,5400 2892,5453 2950,5489C3059,5556 3209,5639 3223,5640C3227,5640 3230,5636 3230,5632ZM3390,5630C3408,5625 3411,5621 3400,5617C3370,5606 3255,5581 3252,5585C3250,5587 3265,5600 3287,5614C3327,5640 3348,5643 3390,5630ZM2756,5591L2728,5562L2767,5556C2788,5553 2826,5548 2853,5544C2879,5541 2903,5533 2907,5527C2911,5520 2881,5519 2811,5523C2747,5527 2712,5526 2715,5520C2719,5514 2748,5510 2781,5510C2819,5510 2839,5506 2835,5500C2832,5495 2818,5490 2805,5490C2792,5490 2780,5485 2778,5479C2775,5471 2752,5471 2696,5479C2598,5493 2435,5493 2350,5480C2233,5461 2190,5442 2123,5377C2088,5344 2060,5322 2060,5328C2060,5344 2191,5460 2217,5466C2244,5473 2247,5487 2223,5492C2210,5495 2217,5503 2249,5524C2291,5551 2302,5553 2456,5562C2590,5569 2630,5575 2682,5595C2717,5608 2754,5619 2764,5620C2782,5620 2781,5617 2756,5591ZM2022,5555C2050,5530 2083,5507 2096,5504C2109,5501 2120,5494 2120,5490C2120,5481 2091,5455 2087,5461C2086,5464 2056,5496 2020,5533C1946,5609 1948,5622 2022,5555ZM3749,5556C3744,5551 3529,5470 3521,5470C3484,5470 3691,5559 3729,5560C3742,5560 3751,5558 3749,5556ZM4335,5429C4445,5387 4534,5349 4532,5344C4530,5340 4580,5321 4642,5303C4785,5260 4784,5261 4777,5254C4771,5247 4462,5336 4323,5385C4213,5423 4074,5485 4065,5500C4056,5515 4060,5513 4141,5476C4227,5437 4470,5347 4476,5353C4478,5355 4421,5378 4348,5405C4197,5459 4110,5498 4110,5512C4110,5517 4116,5518 4123,5513C4129,5509 4225,5471 4335,5429ZM2169,5486C2157,5474 2088,5430 2082,5430C2069,5431 2144,5490 2159,5490C2167,5490 2171,5488 2169,5486ZM4569,5444C4603,5419 4630,5394 4630,5390C4630,5381 4568,5399 4531,5419C4520,5425 4502,5443 4490,5460C4469,5489 4469,5490 4488,5490C4499,5490 4535,5469 4569,5444ZM2583,5441C2597,5427 2534,5390 2477,5379C2447,5374 2380,5356 2329,5340C2278,5324 2233,5313 2231,5316C2225,5322 2221,5319 2340,5398L2435,5462L2505,5455C2543,5452 2578,5446 2583,5441ZM2660,5450C2660,5446 2651,5435 2640,5425C2618,5405 2612,5375 2633,5385C2652,5396 2546,5295 2427,5190C2368,5138 2312,5096 2304,5098C2293,5100 2290,5096 2294,5082C2300,5064 2225,4882 2215,4892C2211,4896 2226,4962 2245,5019C2251,5040 2250,5042 2228,5037C2192,5028 2088,4979 2093,4973C2096,4971 2117,4978 2139,4990C2162,5001 2193,5015 2208,5020C2258,5038 2207,5006 2126,4969C2085,4950 2052,4930 2053,4924C2056,4908 1978,4750 1968,4750C1959,4750 1963,4773 1986,4858C1994,4886 2006,4910 2012,4910C2018,4910 2021,4912 2019,4915C2014,4920 1887,4874 1746,4815C1698,4795 1656,4781 1653,4784C1646,4790 1762,4842 1872,4882C1920,4900 1960,4918 1960,4922C1960,4927 1950,4926 1938,4919C1927,4913 1877,4895 1829,4879C1730,4847 1618,4794 1580,4760C1562,4745 1560,4740 1573,4744C1587,4749 1589,4747 1580,4732C1574,4723 1558,4698 1546,4677C1515,4626 1504,4651 1528,4716C1542,4755 1555,4770 1610,4805C1646,4828 1684,4852 1695,4858C1706,4864 1709,4870 1702,4870C1694,4870 1659,4854 1624,4834C1553,4794 1536,4800 1603,4842C1665,4881 1740,4912 1875,4955C2034,5005 2187,5074 2230,5115C2249,5133 2347,5217 2447,5302C2608,5438 2660,5474 2660,5450ZM2245,5383C2223,5364 2154,5298 2093,5237C2008,5154 1976,5115 1963,5081C1946,5033 1930,5008 1930,5027C1930,5034 1941,5074 1955,5117C1983,5206 2025,5264 2114,5339C2200,5412 2322,5453 2245,5383ZM2449,5356C2440,5347 2167,5239 2164,5243C2152,5255 2210,5285 2311,5319C2413,5355 2461,5367 2449,5356ZM4679,5255C4688,5260 4829,5225 4838,5215C4849,5204 4748,5219 4670,5239C4630,5250 4593,5263 4587,5269C4582,5274 4599,5272 4625,5265C4651,5257 4675,5252 4679,5255ZM2179,5112C2140,5082 2037,5020 2033,5024C2031,5026 2035,5043 2043,5062C2060,5102 2107,5125 2179,5129L2203,5130L2179,5112ZM1860,4842C1860,4812 1796,4580 1780,4556C1756,4516 1702,4465 1694,4473C1675,4492 1791,4810 1827,4838C1846,4852 1860,4854 1860,4842ZM1886,4749C1878,4703 1866,4622 1860,4570C1854,4518 1847,4465 1843,4453C1840,4440 1842,4430 1847,4430C1853,4430 1862,4462 1869,4502C1875,4542 1884,4579 1889,4584C1893,4590 1902,4622 1909,4655C1940,4800 1952,4851 1957,4846C1962,4842 1933,4680 1880,4410C1854,4283 1848,4300 1944,4235C1992,4203 2028,4175 2026,4172C2023,4170 1987,4186 1946,4209C1864,4254 1840,4259 1840,4232C1840,4223 1830,4197 1819,4175C1785,4112 1688,3969 1682,3974C1680,3977 1696,4015 1718,4058C1767,4151 1784,4194 1770,4185C1755,4176 1757,4190 1790,4307C1825,4430 1827,4451 1800,4395C1772,4338 1775,4361 1821,4596C1867,4827 1876,4858 1891,4843C1898,4836 1896,4806 1886,4749ZM1727,4773C1723,4763 1702,4687 1678,4603C1654,4520 1631,4448 1626,4443C1600,4418 1664,4719 1696,4767C1713,4794 1735,4798 1727,4773ZM1522,4524C1484,4436 1445,4343 1435,4317C1413,4259 1395,4243 1405,4291C1421,4367 1537,4635 1572,4678C1598,4709 1586,4672 1522,4524ZM5310,4572C5321,4559 5330,4542 5330,4534C5330,4526 5336,4520 5343,4520C5358,4519 5379,4490 5424,4407C5460,4341 5469,4313 5450,4325C5445,4328 5495,4241 5562,4130C5628,4020 5680,3927 5676,3923C5668,3915 5678,3901 5586,4060C5485,4235 5474,4245 5551,4093C5585,4025 5611,3968 5608,3965C5600,3956 5430,4211 5375,4315C5337,4387 5249,4616 5250,4640C5251,4643 5260,4634 5271,4620C5281,4606 5299,4584 5310,4572ZM1608,4466C1597,4383 1594,4377 1556,4343C1533,4322 1515,4311 1512,4318C1505,4340 1604,4569 1615,4558C1618,4556 1614,4514 1608,4466ZM1694,4413C1677,4397 1672,4391 1682,4399C1692,4407 1703,4411 1706,4407C1709,4404 1684,4374 1650,4341C1616,4307 1592,4280 1596,4280C1601,4280 1637,4313 1677,4352C1717,4392 1750,4419 1750,4413C1750,4401 1653,4303 1472,4133C1372,4040 1308,3958 1284,3893C1264,3837 1244,3811 1254,3852C1259,3873 1257,3878 1246,3874C1228,3867 1220,3923 1232,3970C1245,4018 1289,4092 1301,4085C1306,4081 1310,4085 1310,4094C1310,4102 1324,4119 1341,4132C1358,4145 1388,4170 1407,4188C1426,4205 1445,4220 1449,4220C1453,4220 1471,4238 1489,4260C1518,4297 1551,4316 1534,4288C1530,4281 1530,4278 1534,4282C1538,4285 1542,4292 1542,4297C1541,4309 1571,4340 1583,4340C1588,4340 1586,4332 1579,4323C1568,4307 1568,4307 1580,4318C1588,4325 1595,4336 1595,4342C1595,4356 1696,4440 1712,4440C1719,4440 1711,4428 1694,4413ZM5609,4215C5650,4143 5694,4027 5687,4007C5686,4002 5655,4039 5620,4090C5566,4170 5556,4192 5552,4237C5549,4267 5552,4290 5557,4290C5562,4290 5586,4256 5609,4215ZM1340,4255C1360,4231 1346,4227 1325,4250C1315,4261 1312,4270 1317,4270C1323,4270 1333,4263 1340,4255ZM1514,3983C1506,3962 1480,3901 1458,3848C1417,3749 1390,3715 1414,3793C1437,3866 1513,4020 1526,4020C1528,4020 1523,4003 1514,3983ZM1373,3810C1377,3714 1385,3648 1403,3580C1416,3528 1428,3472 1428,3457C1428,3430 1427,3430 1409,3446C1398,3455 1390,3459 1390,3454C1389,3424 1320,3574 1311,3625C1293,3725 1300,3940 1320,3940C1324,3940 1325,3928 1323,3913C1319,3889 1320,3888 1330,3903C1336,3912 1338,3929 1335,3940C1326,3969 1339,3985 1355,3963C1363,3952 1369,3894 1373,3810ZM1500,3593C1488,3539 1474,3491 1470,3487C1458,3474 1437,3548 1445,3578C1452,3608 1511,3702 1518,3695C1521,3693 1513,3647 1500,3593ZM5850,3534C5868,3424 5862,3324 5829,3183C5812,3110 5795,3050 5791,3050C5787,3050 5796,3107 5812,3178C5838,3293 5841,3317 5835,3427C5832,3494 5827,3564 5824,3582C5819,3607 5820,3612 5829,3604C5835,3598 5845,3567 5850,3534ZM5990,3459C6018,3405 6037,3360 6032,3360C6028,3360 6001,3408 5972,3466C5943,3524 5924,3569 5930,3565C5936,3561 5963,3514 5990,3459ZM5895,3491C5905,3470 5907,3459 5899,3454C5885,3446 5870,3468 5870,3498C5870,3528 5876,3526 5895,3491ZM5958,3375C5965,3361 5970,3340 5970,3330C5970,3308 5827,3073 5823,3087C5821,3092 5831,3143 5845,3201C5859,3258 5870,3312 5870,3320C5870,3334 5928,3400 5940,3400C5944,3400 5952,3389 5958,3375ZM1764,3313C1757,3257 1756,3256 1749,3290C1745,3315 1742,3298 1741,3235C1740,3173 1737,3150 1730,3160C1725,3168 1720,3195 1719,3220L1717,3265L1710,3220C1703,3176 1703,3177 1700,3243C1698,3280 1697,3314 1696,3319C1695,3329 1762,3379 1769,3374C1771,3372 1769,3345 1764,3313ZM1680,3050C1847,2770 1915,2630 1883,2630C1873,2630 1830,2672 1830,2683C1830,2688 1807,2731 1778,2779C1715,2884 1718,2880 1724,2880C1727,2880 1755,2843 1786,2798C1817,2752 1840,2723 1837,2732C1834,2741 1786,2816 1732,2897C1621,3064 1596,3106 1605,3120C1609,3126 1591,3165 1566,3206C1522,3280 1504,3326 1536,3285C1545,3274 1609,3168 1680,3050ZM1632,2970C1630,2953 1624,2940 1620,2940C1616,2940 1592,2959 1567,2983C1516,3031 1490,3098 1490,3184L1490,3234L1563,3117C1622,3023 1636,2993 1632,2970ZM5525,3153C5522,3132 5509,3099 5498,3080L5478,3045L5501,3065C5526,3088 5526,3087 5477,3005C5458,2972 5439,2934 5436,2920C5433,2906 5439,2914 5449,2936C5467,2974 5490,3001 5490,2984C5490,2973 5472,2918 5438,2826C5422,2782 5386,2679 5359,2596C5332,2513 5302,2434 5292,2421L5273,2398L5273,2431C5272,2462 5300,2583 5349,2766C5377,2868 5511,3190 5526,3190C5529,3190 5529,3173 5525,3153ZM1410,3008C1410,2993 1469,2941 1552,2882C1590,2855 1619,2827 1620,2818C1620,2793 1613,2795 1561,2837C1496,2889 1490,2893 1490,2888C1490,2885 1517,2862 1550,2836C1583,2810 1610,2784 1610,2779C1610,2765 1495,2853 1438,2911C1398,2950 1390,2965 1390,2995C1390,3017 1394,3029 1400,3025C1406,3022 1410,3014 1410,3008ZM1675,2900C1693,2900 1692,2770 1674,2583C1659,2426 1657,2318 1671,2280C1676,2264 1678,2288 1674,2345C1672,2395 1674,2471 1680,2515C1686,2559 1695,2638 1701,2690C1714,2820 1732,2863 1725,2750C1722,2703 1717,2617 1713,2558C1710,2498 1703,2450 1698,2450C1690,2450 1695,2266 1706,2197C1712,2157 1725,2147 1780,2135C1814,2128 1815,2128 1798,2147C1764,2185 1781,2181 1826,2141C1852,2118 1878,2100 1885,2100C1892,2100 1917,2084 1941,2065C1965,2046 1990,2030 1997,2030C2022,2030 2101,1990 2095,1980C2092,1975 2094,1970 2099,1970C2105,1970 2110,1966 2110,1960C2110,1955 2104,1952 2098,1953C2091,1955 2095,1952 2108,1946C2131,1936 2140,1914 2118,1923C2111,1925 2069,1942 2025,1959C1981,1976 1927,2001 1905,2015C1883,2029 1845,2049 1820,2061C1795,2073 1771,2088 1765,2095C1760,2101 1739,2118 1720,2132C1698,2149 1671,2186 1646,2235L1607,2313L1613,2479C1617,2570 1626,2702 1634,2771C1642,2840 1648,2903 1648,2911C1646,2946 1653,2963 1657,2933C1660,2914 1667,2900 1675,2900ZM1416,2828C1451,2800 1478,2775 1476,2772C1469,2766 1347,2853 1342,2868C1335,2890 1351,2881 1416,2828ZM5467,2713C5471,2667 5435,2504 5397,2395C5383,2355 5339,2318 5323,2333C5316,2340 5373,2590 5408,2705C5435,2796 5459,2799 5467,2713ZM1842,2619C1917,2557 1940,2533 1940,2517C1940,2508 1920,2524 1802,2632C1726,2700 1754,2692 1842,2619ZM1854,2568C1931,2497 1941,2483 1936,2460C1933,2445 1937,2424 1944,2414C1952,2403 1995,2325 2040,2240C2085,2155 2128,2081 2135,2075C2142,2070 2179,2017 2219,1959C2314,1817 2444,1663 2500,1626C2525,1609 2565,1575 2590,1550C2625,1515 2629,1512 2611,1538C2599,1555 2591,1570 2594,1570C2610,1570 2630,1556 2630,1544C2630,1536 2659,1523 2703,1510C2842,1469 2873,1458 2860,1450C2853,1445 2868,1438 2898,1430C2950,1418 2989,1396 2979,1386C2976,1383 2941,1391 2900,1405C2860,1418 2823,1427 2818,1424C2813,1421 2748,1439 2672,1463C2536,1508 2471,1520 2438,1505C2423,1499 2420,1484 2419,1416C2419,1372 2415,1313 2410,1285C2405,1247 2402,1269 2401,1380C2400,1460 2396,1554 2392,1590C2385,1650 2380,1660 2323,1730C2228,1847 1925,2355 1935,2381C1938,2389 1927,2417 1910,2443C1894,2469 1883,2496 1886,2503C1889,2511 1862,2544 1820,2583C1781,2620 1754,2650 1758,2650C1763,2650 1806,2613 1854,2568ZM1767,2528C1788,2505 1878,2174 1866,2163C1856,2153 1741,2255 1728,2285C1707,2335 1716,2550 1739,2550C1743,2550 1756,2540 1767,2528ZM1894,2276C1937,2173 1945,2132 1915,2173C1900,2194 1820,2415 1821,2433C1821,2448 1837,2414 1894,2276ZM2113,2323C2148,2241 2261,2036 2322,1943C2400,1826 2443,1770 2539,1668C2639,1561 2615,1569 2509,1678C2372,1817 2259,1983 2150,2201C2111,2277 2080,2344 2080,2350C2080,2373 2098,2358 2113,2323ZM2095,2259C2133,2184 2122,2162 2082,2232C2054,2281 2048,2310 2065,2310C2068,2310 2081,2287 2095,2259ZM2506,2052C2593,1995 2644,1950 2623,1950C2617,1950 2607,1957 2600,1965C2593,1973 2545,2008 2494,2041C2442,2075 2400,2104 2400,2106C2400,2118 2427,2104 2506,2052ZM5226,2047C5206,1979 5144,1894 5054,1812C4945,1712 4936,1718 5037,1823C5106,1896 5142,1944 5181,2016C5209,2068 5234,2109 5237,2106C5240,2104 5235,2077 5226,2047ZM2533,2068C2592,2028 2700,1938 2700,1929C2700,1914 2666,1933 2632,1967C2614,1985 2574,2019 2544,2041C2514,2064 2490,2084 2490,2086C2490,2095 2503,2089 2533,2068ZM5170,2016C5129,1948 5011,1809 4973,1785C4958,1774 4974,1798 5013,1841C5049,1882 5094,1935 5111,1960L5142,2005L5109,1965C5049,1893 4926,1768 4886,1739C4828,1696 4821,1704 4877,1748C4939,1798 5027,1889 5085,1965C5130,2024 5191,2082 5199,2075C5201,2072 5188,2046 5170,2016ZM2492,2024C2551,1988 2562,1972 2518,1984C2495,1990 2409,2060 2425,2060C2429,2060 2459,2044 2492,2024ZM2970,1809C3044,1787 3125,1757 3150,1744C3205,1716 3182,1713 3121,1740C3097,1751 3075,1759 3074,1757C3069,1753 3403,1590 3416,1590C3421,1590 3403,1603 3375,1618C3316,1650 3230,1709 3230,1716C3230,1719 3249,1709 3273,1695C3329,1661 3427,1610 3437,1610C3441,1611 3427,1620 3405,1631C3383,1643 3335,1670 3297,1691C3260,1713 3226,1728 3221,1725C3216,1722 3208,1725 3204,1731C3199,1739 3201,1740 3210,1735C3218,1730 3221,1731 3217,1736C3214,1742 3189,1757 3161,1770C3133,1783 3110,1797 3110,1801C3110,1818 3205,1772 3325,1697C3369,1669 3448,1629 3500,1608C3552,1586 3646,1545 3710,1515C3773,1486 3864,1450 3912,1436C3960,1421 4020,1401 4045,1390C4079,1376 4090,1374 4090,1384C4090,1396 4151,1420 4182,1420C4203,1420 4291,1493 4331,1544C4359,1579 4353,1575 4291,1520C4207,1445 4180,1424 4181,1436C4181,1441 4217,1477 4261,1515C4336,1582 4342,1585 4390,1585C4417,1586 4440,1584 4440,1582C4440,1571 4376,1501 4369,1505C4365,1508 4359,1506 4356,1501C4352,1496 4342,1493 4332,1495C4323,1496 4297,1480 4275,1459C4253,1438 4222,1414 4205,1406C4179,1392 4178,1390 4197,1390C4210,1390 4236,1408 4260,1434C4283,1459 4309,1477 4318,1475C4327,1474 4343,1479 4353,1488C4385,1516 4370,1485 4327,1435C4304,1407 4277,1373 4267,1358C4236,1308 4201,1298 4102,1309C4011,1319 3791,1389 3655,1450C3614,1468 3591,1475 3601,1465C3609,1456 3643,1438 3676,1425C3708,1412 3736,1397 3738,1391C3740,1385 3728,1386 3708,1394C3690,1402 3655,1411 3630,1415C3570,1425 3282,1542 3200,1590C3164,1611 3111,1636 3081,1645C3050,1655 3033,1665 3040,1670C3050,1676 2652,1821 2485,1871C2447,1882 2408,1899 2400,1907C2387,1921 2387,1922 2405,1916C2416,1912 2461,1898 2505,1885C2593,1859 2864,1765 2950,1731C2980,1719 3000,1714 2994,1720C2976,1738 2860,1782 2614,1864C2399,1935 2338,1961 2350,1973C2353,1976 2402,1963 2460,1944C2518,1926 2567,1910 2570,1910C2587,1910 2532,1934 2453,1961C2402,1978 2360,1995 2360,2000C2360,2005 2467,1973 2598,1930C2728,1887 2896,1832 2970,1809ZM3105,1933C3085,1886 3060,1847 3054,1853C3047,1859 3102,1970 3112,1970C3117,1970 3113,1953 3105,1933ZM4634,1942C4642,1929 4528,1851 4407,1787C4348,1755 4230,1687 4145,1635C4005,1549 3901,1498 3916,1521C3944,1567 4448,1900 4489,1900C4496,1900 4498,1905 4494,1912C4490,1918 4491,1920 4497,1917C4503,1913 4528,1919 4551,1930C4598,1951 4626,1955 4634,1942ZM5009,1914C4990,1895 4860,1847 4860,1859C4860,1868 4989,1930 5010,1930C5022,1930 5022,1928 5009,1914ZM4924,1829C4908,1812 4867,1778 4833,1753C4782,1717 4764,1709 4734,1712C4713,1714 4695,1720 4694,1725C4688,1745 4795,1818 4860,1838C4951,1866 4959,1865 4924,1829ZM2542,1789C2593,1777 2642,1761 2650,1752C2663,1739 2663,1738 2650,1742C2642,1745 2591,1757 2538,1769C2484,1782 2440,1796 2440,1801C2440,1813 2434,1813 2542,1789ZM2673,1724C2696,1719 2712,1700 2694,1700C2674,1700 2610,1725 2610,1732C2610,1737 2618,1739 2628,1736C2637,1733 2657,1728 2673,1724ZM4076,1685C4065,1677 4040,1670 4020,1670C3977,1670 3870,1641 3768,1602C3720,1583 3687,1576 3679,1581C3671,1586 3667,1590 3670,1591C3711,1598 3729,1604 3783,1626C3855,1655 4021,1699 4065,1699C4094,1699 4094,1699 4076,1685ZM2984,1556C3015,1515 3048,1476 3057,1468C3066,1461 3054,1480 3031,1510L2987,1565L3019,1568C3043,1571 3069,1560 3128,1522C3170,1495 3233,1458 3268,1441C3302,1424 3330,1407 3330,1403C3330,1395 3170,1408 3129,1420L3097,1429L3120,1405C3139,1385 3190,1348 3259,1303C3261,1301 3261,1298 3259,1296C3247,1284 3161,1337 3103,1392C3028,1464 2903,1630 2924,1630C2926,1630 2953,1597 2984,1556ZM3970,1616C3970,1602 3839,1520 3819,1520C3785,1521 3740,1547 3760,1554C3768,1557 3813,1573 3860,1589C3944,1618 3970,1624 3970,1616ZM4290,1611C4290,1599 4223,1555 4170,1531C4086,1494 3960,1450 3960,1458C3960,1471 4046,1532 4129,1577C4184,1608 4217,1619 4248,1620C4271,1620 4290,1616 4290,1611ZM2842,1542C2863,1522 2869,1510 2860,1510C2842,1510 2660,1583 2660,1590C2660,1593 2694,1591 2735,1585C2799,1576 2814,1570 2842,1542ZM4529,1586C4518,1577 4460,1572 4460,1580C4460,1586 4477,1590 4497,1590C4517,1590 4531,1588 4529,1586ZM3295,1469C3418,1417 3448,1400 3416,1400C3395,1400 3240,1468 3188,1500C3134,1533 3167,1523 3295,1469ZM3520,1371C3520,1351 3217,1340 3205,1360C3201,1366 3256,1371 3352,1373C3436,1374 3508,1377 3513,1378C3517,1379 3520,1376 3520,1371ZM3690,1365C3690,1354 3574,1309 3526,1302C3445,1291 3280,1296 3280,1310C3280,1316 3322,1321 3383,1322C3462,1323 3475,1325 3440,1330C3415,1334 3404,1338 3415,1339C3426,1340 3485,1347 3545,1354C3680,1371 3690,1371 3690,1365Z" style="fill-rule:nonzero;"/>
        <path d="M2985,5488C2912,5444 2905,5432 2975,5470C3045,5509 3045,5509 3039,5514C3037,5517 3012,5505 2985,5488Z" style="fill-rule:nonzero;"/>
        <path d="M1821,4464C1821,4453 1824,4450 1827,4458C1830,4465 1829,4474 1826,4477C1823,4481 1820,4475 1821,4464Z" style="fill-rule:nonzero;"/>
        <path d="M1841,4394C1841,4383 1844,4380 1847,4388C1850,4395 1849,4404 1846,4407C1843,4411 1840,4405 1841,4394Z" style="fill-rule:nonzero;"/>
        <path d="M1831,4354C1831,4343 1834,4340 1837,4348C1840,4355 1839,4364 1836,4367C1833,4371 1830,4365 1831,4354Z" style="fill-rule:nonzero;"/>
        <path d="M5350,4456C5350,4435 5402,4360 5412,4366C5419,4371 5421,4368 5418,4358C5414,4350 5417,4343 5425,4343C5435,4343 5433,4355 5417,4386C5406,4410 5393,4428 5389,4427C5385,4426 5374,4434 5366,4445C5358,4456 5350,4461 5350,4456Z" style="fill-rule:nonzero;"/>
        <path d="M1624,4358L1605,4335L1628,4354C1649,4372 1655,4380 1647,4380C1645,4380 1635,4370 1624,4358Z" style="fill-rule:nonzero;"/>
        <path d="M1413,4136C1353,4079 1313,4032 1291,3991C1253,3919 1256,3910 1296,3977C1311,4004 1366,4069 1418,4122C1470,4176 1511,4220 1508,4220C1505,4220 1462,4182 1413,4136Z" style="fill-rule:nonzero;"/>
        <path d="M1610,3115C1610,3110 1620,3094 1631,3080C1644,3063 1648,3062 1641,3075C1624,3108 1610,3126 1610,3115Z" style="fill-rule:nonzero;"/>
        <path d="M1679,3005C1684,2994 1696,2976 1705,2965L1721,2945L1711,2965C1706,2976 1694,2994 1685,3005L1669,3025L1679,3005Z" style="fill-rule:nonzero;"/>
        <path d="M1905,2476C1915,2462 1924,2450 1927,2450C1934,2450 1910,2489 1899,2496C1893,2499 1896,2491 1905,2476Z" style="fill-rule:nonzero;"/>
        <path d="M1950,2360C1956,2349 1963,2340 1966,2340C1968,2340 1966,2349 1960,2360C1954,2371 1947,2380 1944,2380C1942,2380 1944,2371 1950,2360Z" style="fill-rule:nonzero;"/>
        <path d="M2279,1834C2302,1800 2333,1762 2347,1749C2361,1736 2349,1757 2320,1795C2248,1889 2227,1909 2279,1834Z" style="fill-rule:nonzero;"/>
        <path d="M2788,1463C2795,1460 2804,1461 2807,1464C2811,1467 2805,1470 2794,1469C2783,1469 2780,1466 2788,1463Z" style="fill-rule:nonzero;"/>
        <path d="M3440,1580C3448,1575 3460,1570 3465,1570C3471,1570 3468,1575 3460,1580C3452,1585 3441,1590 3435,1590C3430,1590 3432,1585 3440,1580Z" style="fill-rule:nonzero;"/>
        <path d="M4359,1533L4335,1505L4363,1529C4378,1543 4390,1555 4390,1557C4390,1565 4382,1558 4359,1533Z" style="fill-rule:nonzero;"/>
        <path d="M5232,5035C5251,5008 5340,4875 5430,4740C5520,4605 5597,4491 5602,4485C5626,4458 5551,4606 5489,4709C5393,4866 5321,4965 5253,5031L5197,5085L5232,5035Z" style="fill-rule:nonzero;"/>
        <path d="M4751,4996C4753,4994 4796,4976 4846,4957C4896,4938 4957,4912 4981,4901C5047,4869 4998,4905 4925,4942C4860,4975 4731,5015 4751,4996Z" style="fill-rule:nonzero;"/>
        <path d="M4948,4953C4955,4950 4964,4951 4967,4954C4971,4957 4965,4960 4954,4959C4943,4959 4940,4956 4948,4953Z" style="fill-rule:nonzero;"/>
        <path d="M5751,4204C5751,4193 5754,4190 5757,4198C5760,4205 5759,4214 5756,4217C5753,4221 5750,4215 5751,4204Z" style="fill-rule:nonzero;"/>
        <path d="M5891,4114C5891,4103 5894,4100 5897,4108C5900,4115 5899,4124 5896,4127C5893,4131 5890,4125 5891,4114Z" style="fill-rule:nonzero;"/>
        <path d="M5440,4015C5440,3991 5489,3840 5502,3823C5514,3808 5620,3592 5627,3568C5632,3552 5677,3537 5692,3547C5697,3549 5700,3558 5700,3567C5700,3576 5716,3636 5735,3701C5775,3837 5774,3830 5757,3830C5735,3830 5682,3710 5675,3643C5671,3608 5664,3580 5659,3580C5654,3580 5650,3585 5650,3590C5650,3596 5645,3599 5639,3598C5632,3596 5611,3636 5590,3685C5570,3735 5539,3804 5520,3840C5502,3876 5476,3934 5464,3970C5451,4006 5440,4026 5440,4015Z" style="fill-rule:nonzero;"/>
        <path d="M5849,3964C5832,3928 5821,3896 5823,3894C5825,3892 5840,3922 5857,3960C5874,3999 5886,4030 5884,4030C5881,4030 5865,4000 5849,3964Z" style="fill-rule:nonzero;"/>
        <path d="M5826,4005C5817,3979 5819,3973 5831,3993C5837,4003 5840,4014 5837,4016C5835,4019 5830,4014 5826,4005Z" style="fill-rule:nonzero;"/>
        <path d="M5771,3753C5744,3661 5718,3549 5724,3543C5726,3541 5733,3563 5739,3592C5746,3621 5762,3682 5776,3728C5790,3774 5800,3814 5797,3816C5794,3819 5783,3790 5771,3753Z" style="fill-rule:nonzero;"/>
        <path d="M5671,3774C5671,3763 5674,3760 5677,3768C5680,3775 5679,3784 5676,3787C5673,3791 5670,3785 5671,3774Z" style="fill-rule:nonzero;"/>
        <path d="M5525,3702C5529,3690 5542,3631 5555,3572C5572,3494 5578,3476 5579,3505C5580,3549 5549,3676 5531,3706C5520,3724 5520,3723 5525,3702Z" style="fill-rule:nonzero;"/>
        <path d="M5661,3704C5661,3693 5664,3690 5667,3698C5670,3705 5669,3714 5666,3717C5663,3721 5660,3715 5661,3704Z" style="fill-rule:nonzero;"/>
        <path d="M1603,3647C1596,3633 1595,3618 1601,3609C1608,3598 1610,3598 1610,3613C1610,3650 1640,3625 1685,3550C1700,3525 1710,3512 1707,3521C1704,3531 1696,3556 1689,3579C1683,3601 1674,3618 1671,3616C1662,3610 1635,3632 1624,3653C1614,3670 1613,3669 1603,3647Z" style="fill-rule:nonzero;"/>
        <path d="M5652,3635C5652,3619 5654,3613 5657,3623C5659,3632 5659,3646 5657,3653C5654,3659 5652,3652 5652,3635Z" style="fill-rule:nonzero;"/>
        <path d="M1583,3545C1580,3536 1580,3527 1582,3524C1585,3521 1590,3528 1593,3540C1599,3563 1592,3567 1583,3545Z" style="fill-rule:nonzero;"/>
        <path d="M5621,3264C5621,3253 5624,3250 5627,3258C5630,3265 5629,3274 5626,3277C5623,3281 5620,3275 5621,3264Z" style="fill-rule:nonzero;"/>
        <path d="M5874,3005C5865,2991 5859,2978 5861,2976C5863,2974 5888,2976 5915,2980L5965,2987L5922,2989C5883,2990 5880,2992 5890,3010C5905,3039 5894,3035 5874,3005Z" style="fill-rule:nonzero;"/>
        <path d="M4548,1964C4510,1944 4512,1936 4550,1955C4567,1964 4580,1973 4580,1975C4580,1982 4579,1981 4548,1964Z" style="fill-rule:nonzero;"/>
        <path d="M4689,1913C4676,1897 4677,1896 4693,1909C4702,1916 4710,1924 4710,1926C4710,1934 4702,1929 4689,1913Z" style="fill-rule:nonzero;"/>
        <path d="M4590,1834C4500,1756 4465,1720 4535,1778C4607,1837 4676,1899 4670,1899C4667,1899 4631,1870 4590,1834Z" style="fill-rule:nonzero;"/>
        <path d="M2780,1666C2780,1664 2788,1656 2798,1649C2813,1636 2814,1637 2801,1653C2788,1669 2780,1674 2780,1666Z" style="fill-rule:nonzero;"/>
        <path d="M4428,1663C4434,1661 4446,1661 4453,1663C4459,1666 4454,1668 4440,1668C4426,1668 4421,1666 4428,1663Z" style="fill-rule:nonzero;"/>
        <path d="M2910,1566C2910,1564 2918,1556 2928,1549C2943,1536 2944,1537 2931,1553C2918,1569 2910,1574 2910,1566Z" style="fill-rule:nonzero;"/>
        <path d="M4961,1505C4970,1496 5040,1470 5040,1475C5040,1478 5024,1488 5005,1496C4971,1510 4953,1514 4961,1505Z" style="fill-rule:nonzero;"/>
        <path d="M4703,1433C4712,1431 4728,1431 4738,1433C4747,1436 4739,1438 4720,1438C4701,1438 4693,1436 4703,1433Z" style="fill-rule:nonzero;"/>
        <path d="M4778,1423C4784,1421 4796,1421 4803,1423C4809,1426 4804,1428 4790,1428C4776,1428 4771,1426 4778,1423Z" style="fill-rule:nonzero;"/>
    </g>
</svg>
